#!OML:ASF G:\JayActor3\Patient Classification 1\Patient 1\Session 5\male.ASF
:FULLY-SPECIFIED
:DEGREES
796
root -24.421 17.7935 -5.09144 5.98003 84.593 -11.2176
lowerback 21.3 -1.10408 -0.11159
upperback 7.0215 -1.10295 -1.70596
thorax -4.29311 -0.338624 -1.50772
lowerneck 6.03831 0.981224 2.52681
upperneck -19.55 2.18443 0.742266
head -6.94349 0.96743 -0.371614
rclavicle 7.95139e-016 -3.18055e-015
rhumerus -28.6962 -1.19375 -90.7305
rradius 28.3405
rwrist 2.5464
rhand -21.7284 -9.17088
rfingers 7.12502
rthumb 4.671 -39.0994
lclavicle 7.95139e-016 -3.18055e-015
lhumerus -30.4401 5.09615 83.1657
lradius 27.131
lwrist 21.6425
lhand -19.6187 12.7786
lfingers 7.12502
lthumb 6.70795 42.6523
rfemur -52.0373 4.98793 15.7161
rtibia 43.6883
rfoot -4.56934 -7.44749
rtoes -4.57729
lfemur -27.9965 14.3227 -25.6991
ltibia 30.8694
lfoot 5.74396 -12.371
ltoes -10.8307
797
root -24.5425 17.8141 -5.10345 3.79814 84.6036 -13.5262
lowerback 21.2699 -1.15588 0.10753
upperback 7.00808 -1.12529 -1.65166
thorax -4.29634 -0.350262 -1.56904
lowerneck 6.03773 0.978714 2.52138
upperneck -19.4989 2.16774 0.699081
head -6.92638 0.96284 -0.382836
rclavicle 1.07344e-014 1.51076e-014
rhumerus -28.7681 -1.12297 -90.7478
rradius 28.3824
rwrist 2.47186
rhand -21.7057 -9.2033
rfingers 7.12502
rthumb 4.69299 -39.1313
lclavicle 1.07344e-014 1.51076e-014
lhumerus -30.4591 5.14534 83.1183
lradius 27.1349
lwrist 21.7144
lhand -19.5667 12.9277
lfingers 7.12502
lthumb 6.75813 42.7999
rfemur -51.9163 4.9681 16.1735
rtibia 45.3801
rfoot -4.58179 -6.81888
rtoes -4.92249
lfemur -28.7556 14.1381 -25.5255
ltibia 31.0612
lfoot 6.11336 -12.3083
ltoes -11.2151
798
root -24.6627 17.832 -5.11559 1.45507 84.598 -15.9504
lowerback 21.2528 -1.20582 0.339826
upperback 7.00526 -1.14144 -1.59529
thorax -4.29484 -0.358348 -1.63717
lowerneck 6.03711 0.975621 2.51746
upperneck -19.4367 2.15122 0.662749
head -6.90578 0.957611 -0.392019
rclavicle -8.34896e-015 6.36111e-015
rhumerus -28.8239 -1.05451 -90.7485
rradius 28.3906
rwrist 2.44362
rhand -21.6457 -9.25048
rfingers 7.12502
rthumb 4.75087 -39.1772
lclavicle -8.34896e-015 6.36111e-015
lhumerus -30.476 5.20677 83.0697
lradius 27.1352
lwrist 21.7767
lhand -19.5768 13.0929
lfingers 7.12502
lthumb 6.74838 42.9654
rfemur -51.7109 4.93054 16.6569
rtibia 47.0563
rfoot -4.43659 -6.03678
rtoes -5.36642
lfemur -29.4428 13.9646 -25.3377
ltibia 31.2408
lfoot 6.45143 -12.2251
ltoes -11.6285
799
root -24.7816 17.8293 -5.12695 -0.902802 84.5703 -18.3524
lowerback 21.2391 -1.25216 0.576264
upperback 7.01087 -1.15154 -1.54273
thorax -4.28597 -0.363035 -1.71326
lowerneck 6.03648 0.97363 2.51742
upperneck -19.3669 2.13813 0.634969
head -6.8828 0.953046 -0.399292
rclavicle 3.57812e-015 -7.95139e-016
rhumerus -28.8677 -1.00114 -90.7344
rradius 28.3713
rwrist 2.45401
rhand -21.5485 -9.31788
rfingers 7.12502
rthumb 4.8447 -39.2425
lclavicle 3.57812e-015 -7.95139e-016
lhumerus -30.498 5.28852 83.0148
lradius 27.1407
lwrist 21.797
lhand -19.6444 13.2588
lfingers 7.12502
lthumb 6.68313 43.1334
rfemur -51.5053 4.88278 17.1476
rtibia 48.778
rfoot -4.15775 -5.15384
rtoes -5.83009
lfemur -30.1117 13.8113 -25.1557
ltibia 31.4573
lfoot 6.74131 -12.1168
ltoes -12.1409
800
root -24.9 17.8422 -5.13929 -3.10455 84.5269 -20.5698
lowerback 21.2196 -1.29395 0.801679
upperback 7.02515 -1.15773 -1.4968
thorax -4.26445 -0.36537 -1.79122
lowerneck 6.0301 0.97215 2.52549
upperneck -19.2951 2.12789 0.612605
head -6.85817 0.948953 -0.406337
rclavicle 3.57812e-015 -5.56597e-015
rhumerus -28.9005 -0.97323 -90.7039
rradius 28.3316
rwrist 2.48873
rhand -21.428 -9.39553
rfingers 7.12502
rthumb 4.96106 -39.3174
lclavicle 3.57812e-015 -5.56597e-015
lhumerus -30.519 5.36847 82.9595
lradius 27.139
lwrist 21.7802
lhand -19.7458 13.3892
lfingers 7.12502
lthumb 6.58522 43.2669
rfemur -51.1623 4.82547 17.6243
rtibia 50.4133
rfoot -3.79057 -4.21337
rtoes -6.28238
lfemur -30.699 13.6723 -24.9985
ltibia 31.6193
lfoot 7.01291 -11.9847
ltoes -12.7311
801
root -25.0176 17.853 -5.15142 -5.1002 84.4734 -22.5569
lowerback 21.1945 -1.33256 1.00877
upperback 7.0464 -1.16337 -1.4566
thorax -4.23225 -0.367062 -1.86509
lowerneck 6.01433 0.972972 2.53778
upperneck -19.2253 2.12265 0.595621
head -6.83257 0.946733 -0.412688
rclavicle -3.57812e-015 1.59028e-015
rhumerus -28.925 -0.971249 -90.6564
rradius 28.2724
rwrist 2.53779
rhand -21.2995 -9.47447
rfingers 7.12502
rthumb 5.08513 -39.3935
lclavicle -3.57812e-015 1.59028e-015
lhumerus -30.5369 5.45678 82.9025
lradius 27.1247
lwrist 21.728
lhand -19.8625 13.4569
lfingers 7.12502
lthumb 6.47255 43.338
rfemur -50.7592 4.76583 18.0762
rtibia 52.0216
rfoot -3.34513 -3.28319
rtoes -6.72225
lfemur -31.2406 13.5336 -24.8616
ltibia 31.7679
lfoot 7.2482 -11.8329
ltoes -13.3463
802
root -25.1341 17.8629 -5.16311 -6.84694 84.4113 -24.274
lowerback 21.1642 -1.36497 1.19118
upperback 7.07248 -1.16607 -1.42202
thorax -4.19161 -0.367044 -1.93168
lowerneck 5.98825 0.976459 2.55319
upperneck -19.159 2.12267 0.583266
head -6.8063 0.946694 -0.418424
rclavicle -9.54166e-015 -1.35174e-014
rhumerus -28.9513 -1.00115 -90.59
rradius 28.1996
rwrist 2.59476
rhand -21.1922 -9.52895
rfingers 7.12502
rthumb 5.18876 -39.4454
lclavicle -9.54166e-015 -1.35174e-014
lhumerus -30.5583 5.54515 82.8474
lradius 27.1032
lwrist 21.6535
lhand -19.974 13.4584
lfingers 7.12502
lthumb 6.36492 43.3428
rfemur -50.2765 4.71427 18.4932
rtibia 53.5491
rfoot -2.8269 -2.41379
rtoes -7.20719
lfemur -31.6851 13.3916 -24.7437
ltibia 31.7981
lfoot 7.48811 -11.6521
ltoes -13.9727
803
root -25.2501 17.8718 -5.17403 -8.34762 84.3499 -25.7297
lowerback 21.136 -1.39245 1.34766
upperback 7.096 -1.16808 -1.3924
thorax -4.15435 -0.36674 -1.98896
lowerneck 5.95832 0.983887 2.57057
upperneck -19.0999 2.12999 0.576151
head -6.78167 0.949773 -0.423394
rclavicle 1.98785e-014 2.38542e-014
rhumerus -28.9909 -1.06277 -90.5066
rradius 28.1169
rwrist 2.65814
rhand -21.1263 -9.55092
rfingers 7.12502
rthumb 5.25236 -39.4658
lclavicle 1.98785e-014 2.38542e-014
lhumerus -30.5904 5.63542 82.7927
lradius 27.0832
lwrist 21.5698
lhand -20.062 13.4473
lfingers 7.12502
lthumb 6.27996 43.3342
rfemur -49.7436 4.68068 18.8656
rtibia 55.0439
rfoot -2.25524 -1.6386
rtoes -7.6157
lfemur -32.0872 13.2523 -24.6483
ltibia 31.7942
lfoot 7.69663 -11.4752
ltoes -14.6222
804
root -25.3653 17.8804 -5.18385 -9.62165 84.2937 -26.942
lowerback 21.1141 -1.41215 1.476
upperback 7.11486 -1.16604 -1.36581
thorax -4.12468 -0.364658 -2.03437
lowerneck 5.93417 0.992054 2.58951
upperneck -19.0518 2.14018 0.573277
head -6.76164 0.953799 -0.427622
rclavicle 1.03368e-014 7.95139e-015
rhumerus -29.052 -1.16169 -90.4042
rradius 28.0252
rwrist 2.73169
rhand -21.1183 -9.51679
rfingers 7.12502
rthumb 5.26011 -39.4315
lclavicle 1.03368e-014 7.95139e-015
lhumerus -30.6338 5.71938 82.7418
lradius 27.0592
lwrist 21.4946
lhand -20.1133 13.4396
lfingers 7.12502
lthumb 6.23047 43.328
rfemur -49.1563 4.66699 19.1935
rtibia 56.497
rfoot -1.61951 -0.990926
rtoes -7.80787
lfemur -32.4402 13.1342 -24.5768
ltibia 31.7443
lfoot 7.88051 -11.3172
ltoes -15.277
805
root -25.4798 17.889 -5.19229 -10.6477 84.249 -27.8864
lowerback 21.1061 -1.42385 1.57311
upperback 7.12805 -1.16015 -1.34478
thorax -4.10746 -0.360939 -2.06875
lowerneck 5.92181 1.002 2.61194
upperneck -19.015 2.15526 0.575665
head -6.74733 0.959459 -0.431302
rclavicle -5.96354e-015 -1.59028e-015
rhumerus -29.1407 -1.28716 -90.2899
rradius 27.9407
rwrist 2.79825
rhand -21.1571 -9.46098
rfingers 7.12502
rthumb 5.22262 -39.3766
lclavicle -5.96354e-015 -1.59028e-015
lhumerus -30.6901 5.79096 82.6931
lradius 27.0324
lwrist 21.4441
lhand -20.1299 13.423
lfingers 7.12502
lthumb 6.2144 43.3118
rfemur -48.5078 4.66857 19.4751
rtibia 57.8979
rfoot -0.925751 -0.487457
rtoes -7.78821
lfemur -32.7375 13.0511 -24.5362
ltibia 31.637
lfoot 8.06267 -11.1858
ltoes -15.9069
806
root -25.5937 17.8979 -5.19909 -11.5137 84.22 -28.6532
lowerback 21.1079 -1.42873 1.64277
upperback 7.13752 -1.15088 -1.32562
thorax -4.09863 -0.355771 -2.09022
lowerneck 5.92764 1.01115 2.63864
upperneck -18.9951 2.17113 0.578154
head -6.74163 0.965019 -0.436015
rclavicle 6.36111e-015 -7.95139e-016
rhumerus -29.2471 -1.43105 -90.1663
rradius 27.8547
rwrist 2.86801
rhand -21.2357 -9.39038
rfingers 7.12502
rthumb 5.14673 -39.3079
lclavicle 6.36111e-015 -7.95139e-016
lhumerus -30.7518 5.84675 82.6485
lradius 26.998
lwrist 21.4309
lhand -20.1175 13.4083
lfingers 7.12502
lthumb 6.22639 43.2968
rfemur -47.7982 4.6819 19.7206
rtibia 59.2326
rfoot -0.162075 -0.139792
rtoes -7.53131
lfemur -32.9829 13.0202 -24.5233
ltibia 31.4651
lfoot 8.29905 -11.0974
ltoes -16.4058
807
root -25.7068 17.9072 -5.20433 -12.0792 84.2087 -29.0973
lowerback 21.1202 -1.42552 1.67048
upperback 7.14733 -1.13931 -1.3124
thorax -4.09399 -0.349535 -2.09464
lowerneck 5.94931 1.01868 2.66056
upperneck -18.989 2.18638 0.586853
head -6.74334 0.969939 -0.438148
rclavicle 6.75868e-015 3.18055e-014
rhumerus -29.3615 -1.58013 -90.038
rradius 27.7674
rwrist 2.93791
rhand -21.3332 -9.32668
rfingers 7.12502
rthumb 5.05263 -39.2464
lclavicle 6.75868e-015 3.18055e-014
lhumerus -30.8117 5.89325 82.6077
lradius 26.9515
lwrist 21.4474
lhand -20.077 13.4015
lfingers 7.12502
lthumb 6.26547 43.2888
rfemur -47.0197 4.70271 19.9142
rtibia 60.4869
rfoot 0.657334 0.054636
rtoes -7.063
lfemur -33.168 13.0453 -24.5541
ltibia 31.2229
lfoot 8.60505 -11.0426
ltoes -16.7352
808
root -25.8191 17.9172 -5.20799 -12.3631 84.2191 -29.2468
lowerback 21.1305 -1.41674 1.65901
upperback 7.15884 -1.12841 -1.30485
thorax -4.086 -0.34364 -2.08264
lowerneck 5.98188 1.02361 2.67142
upperneck -18.9938 2.19917 0.605053
head -6.75068 0.973533 -0.435396
rclavicle -5.56597e-015 7.15625e-015
rhumerus -29.4745 -1.72535 -89.9105
rradius 27.6765
rwrist 3.01776
rhand -21.4364 -9.28026
rfingers 7.12502
rthumb 4.95296 -39.2024
lclavicle -5.56597e-015 7.15625e-015
lhumerus -30.8589 5.92931 82.5714
lradius 26.8853
lwrist 21.483
lhand -20.0195 13.3924
lfingers 7.12502
lthumb 6.321 43.278
rfemur -46.1813 4.72718 20.0559
rtibia 61.6479
rfoot 1.52548 0.109309
rtoes -6.38245
lfemur -33.3042 13.1239 -24.6293
ltibia 30.9078
lfoot 8.99223 -11.0317
ltoes -16.9365
809
root -25.9308 17.9274 -5.21024 -12.4577 84.2578 -29.1961
lowerback 21.1379 -1.40808 1.61972
upperback 7.17272 -1.12307 -1.30007
thorax -4.07373 -0.340416 -2.05642
lowerneck 6.01507 1.0269 2.6715
upperneck -18.9951 2.20882 0.627213
head -6.75719 0.976003 -0.429319
rclavicle -1.07344e-014 -1.82882e-014
rhumerus -29.5791 -1.86004 -89.7856
rradius 27.5763
rwrist 3.11932
rhand -21.5311 -9.26017
rfingers 7.12502
rthumb 4.86154 -39.1844
lclavicle -1.07344e-014 -1.82882e-014
lhumerus -30.8877 5.95723 82.5412
lradius 26.7977
lwrist 21.5212
lhand -19.9525 13.3892
lfingers 7.12502
lthumb 6.38567 43.273
rfemur -45.2867 4.7489 20.1539
rtibia 62.7064
rfoot 2.44154 0.0465143
rtoes -5.54062
lfemur -33.3971 13.2372 -24.7375
ltibia 30.5236
lfoot 9.47235 -11.0517
ltoes -16.9577
